<?xml version="1.0" encoding="UTF-8" standalone="no"?>
<svg
   xmlns:dc="http://purl.org/dc/elements/1.1/"
   xmlns:cc="http://creativecommons.org/ns#"
   xmlns:rdf="http://www.w3.org/1999/02/22-rdf-syntax-ns#"
   xmlns:svg="http://www.w3.org/2000/svg"
   xmlns="http://www.w3.org/2000/svg"
   xmlns:sodipodi="http://sodipodi.sourceforge.net/DTD/sodipodi-0.dtd"
   xmlns:inkscape="http://www.inkscape.org/namespaces/inkscape"
   aria-hidden="true"
   focusable="false"
   data-prefix="far"
   data-icon="thumbs-down"
   class="svg-inline--fa fa-thumbs-down fa-w-16"
   role="img"
   viewBox="0 0 512 512"
   version="1.1"
   id="svg4"
   sodipodi:docname="thumbs-down-orange-white-fill.svg"
   inkscape:version="0.92.4 (5da689c313, 2019-01-14)">
  <metadata
     id="metadata10">
    <rdf:RDF>
      <cc:Work
         rdf:about="">
        <dc:format>image/svg+xml</dc:format>
        <dc:type
           rdf:resource="http://purl.org/dc/dcmitype/StillImage" />
      </cc:Work>
    </rdf:RDF>
  </metadata>
  <defs
     id="defs8" />
  <sodipodi:namedview
     pagecolor="#ffffff"
     bordercolor="#666666"
     borderopacity="1"
     objecttolerance="10"
     gridtolerance="10"
     guidetolerance="10"
     inkscape:pageopacity="0"
     inkscape:pageshadow="2"
     inkscape:window-width="1920"
     inkscape:window-height="1001"
     id="namedview6"
     showgrid="false"
     inkscape:zoom="0.4609375"
     inkscape:cx="-109.55932"
     inkscape:cy="256"
     inkscape:window-x="-9"
     inkscape:window-y="-9"
     inkscape:window-maximized="1"
     inkscape:current-layer="layer2" />
  <g
     inkscape:groupmode="layer"
     id="layer1"
     inkscape:label="background" />
  <g
     inkscape:groupmode="layer"
     id="layer2"
     inkscape:label="thumb">
    <g
       id="g834"
       style="opacity:0.75">
      <path
         sodipodi:nodetypes="cccssscssssssccssscssc"
         style="fill:#ffffff;fill-opacity:1"
         id="path2-6"
         d="m 466.27,225.31 c 4.674,-22.647 0.864,-44.538 -8.99,-62.99 2.958,-23.868 -4.021,-48.565 -17.34,-66.99 C 438.986,39.423001 404.117,9.9999994e-7 327,9.9999994e-7 320,9.9999994e-7 312,0.010001 304.78,0.010001 c -103.585,0 -135.783,39.99 -176.78,39.99 h -10.845 c -5.64,-4.975 -13.042,-8 -21.154997,-8 H 32 C 14.327,32.000001 0,46.327001 0,64 v 240 c 0,17.673 14.327,32 32,32 H 96.000003 C 107.842,336 118.175,329.562 123.708,320 h 7.052 c 19.146,16.953 46.013,60.653 68.76,83.4 13.667,13.667 10.153,108.6 71.76,108.6 57.58,0 95.27,-31.936 95.27,-104.73 0,-18.41 -3.93,-33.73 -8.85,-46.54 h 36.48 c 48.602,0 85.82,-41.565 85.82,-85.58 0,-19.15 -4.96,-34.99 -13.73,-49.84 z"
         inkscape:connector-curvature="0" />
      <path
         style="fill:#ff8400;fill-opacity:1"
         id="path2"
         d="M466.27 225.31c4.674-22.647.864-44.538-8.99-62.99 2.958-23.868-4.021-48.565-17.34-66.99C438.986 39.423 404.117 0 327 0c-7 0-15 .01-22.22.01C201.195.01 168.997 40 128 40h-10.845c-5.64-4.975-13.042-8-21.155-8H32C14.327 32 0 46.327 0 64v240c0 17.673 14.327 32 32 32h64c11.842 0 22.175-6.438 27.708-16h7.052c19.146 16.953 46.013 60.653 68.76 83.4 13.667 13.667 10.153 108.6 71.76 108.6 57.58 0 95.27-31.936 95.27-104.73 0-18.41-3.93-33.73-8.85-46.54h36.48c48.602 0 85.82-41.565 85.82-85.58 0-19.15-4.96-34.99-13.73-49.84zM64 296c-13.255 0-24-10.745-24-24s10.745-24 24-24 24 10.745 24 24-10.745 24-24 24zm330.18 16.73H290.19c0 37.82 28.36 55.37 28.36 94.54 0 23.75 0 56.73-47.27 56.73-18.91-18.91-9.46-66.18-37.82-94.54C206.9 342.89 167.28 272 138.92 272H128V85.83c53.611 0 100.001-37.82 171.64-37.82h37.82c35.512 0 60.82 17.12 53.12 65.9 15.2 8.16 26.5 36.44 13.94 57.57 21.581 20.384 18.699 51.065 5.21 65.62 9.45 0 22.36 18.91 22.27 37.81-.09 18.91-16.71 37.82-37.82 37.82z"
         fill="white" />
    </g>
  </g>
</svg>
